# Blender 4.3.1
# www.blender.org
mtllib untitled.mtl
o Sphere
v 0.052545 3.044387 -0.661922
v 0.098142 3.001075 -0.749790
v 0.128609 2.936253 -0.808502
v 0.139308 2.859791 -0.829118
v -0.055025 2.802502 -0.661922
v -0.184875 2.836061 -0.558274
v 0.074824 3.044387 -0.558274
v 0.139308 3.001075 -0.558274
v 0.182395 2.936253 -0.558274
v -0.141788 2.815944 -0.558274
v -0.077304 2.802502 -0.558274
v -0.141788 2.859791 -0.287430
v 0.052545 3.044387 -0.454627
v 0.098142 3.001075 -0.366758
v 0.128609 2.936253 -0.308047
v -0.131089 2.836061 -0.308047
v -0.100622 2.815944 -0.366758
v -0.055025 2.802502 -0.454627
v -0.001240 3.044387 -0.411694
v -0.001240 3.001075 -0.287430
v -0.001240 2.936253 -0.204399
v -0.001240 2.859791 -0.175243
v -0.001240 2.836061 -0.204399
v -0.001240 2.815944 -0.287430
v -0.055025 3.044387 -0.454627
v -0.100622 3.001075 -0.366758
v -0.131089 2.936253 -0.308047
v -0.001240 2.802502 -0.411694
v 0.139308 2.859791 -0.287430
v 0.128609 2.836061 -0.308047
v -0.077304 3.044387 -0.558274
v -0.141788 3.001075 -0.558274
v -0.184875 2.936253 -0.558274
v -0.200005 2.859791 -0.558274
v 0.098142 2.815944 -0.366758
v 0.052545 2.802502 -0.454627
v 0.197525 2.859791 -0.558274
v -0.055025 3.044387 -0.661922
v -0.100622 3.001075 -0.749790
v -0.131089 2.936253 -0.808501
v 0.182395 2.836061 -0.558274
v 0.139308 2.815944 -0.558274
v 0.074824 2.802502 -0.558274
v -0.001240 3.059596 -0.558274
v -0.001240 3.044387 -0.704854
v -0.001240 3.001075 -0.829118
v -0.001240 2.936253 -0.912149
v -0.001240 2.859791 -0.941306
v 0.128609 2.836061 -0.808502
v 0.098142 2.815944 -0.749790
v 0.052545 2.802502 -0.661922
v -0.100622 2.815944 -0.749790
v -0.131089 2.836061 -0.808501
v -0.141788 2.859791 -0.829118
v -0.001240 2.797782 -0.558274
v -0.001240 2.802502 -0.704854
v -0.001240 2.815944 -0.829118
v -0.001240 2.836061 -0.912149
v 0.000000 -0.100000 -0.100000
v 0.000000 2.700000 -0.100000
v 0.070711 -0.100000 -0.070711
v 0.070711 2.700000 -0.070711
v 0.100000 -0.100000 0.000000
v 0.100000 2.700000 -0.000000
v 0.070711 -0.100000 0.070711
v 0.070711 2.700000 0.070710
v 0.000000 -0.100000 0.100000
v 0.000000 2.700000 0.100000
v -0.070711 -0.100000 0.070711
v -0.070711 2.700000 0.070710
v -0.100000 -0.100000 0.000000
v -0.100000 2.700000 -0.000000
v -0.070711 -0.100000 -0.070711
v -0.070711 2.700000 -0.070711
v -0.001240 2.845049 -0.352761
v 0.042795 2.863044 -0.349778
v 0.061035 2.906486 -0.342577
v 0.042795 2.949928 -0.335376
v -0.001240 2.967923 -0.332393
v -0.045275 2.949928 -0.335376
v -0.063515 2.906486 -0.342577
v -0.045275 2.863044 -0.349778
v 0.042795 2.828291 -0.140122
v -0.001240 2.810296 -0.143105
v 0.061035 2.871733 -0.132921
v 0.042795 2.915175 -0.125720
v -0.001240 2.933169 -0.122737
v -0.045275 2.915175 -0.125720
v -0.063515 2.871733 -0.132921
v -0.045275 2.828291 -0.140122
v -0.000222 2.739478 -0.104145
v -0.000584 2.776535 -0.113993
v -0.000928 2.802227 -0.129178
v -0.001130 2.810599 -0.139606
v -0.065571 2.740625 -0.074225
v -0.060581 2.779908 -0.083915
v -0.055597 2.809830 -0.100980
v -0.050494 2.824486 -0.119741
v -0.092584 2.743412 -0.001999
v -0.085346 2.788076 -0.011320
v -0.078168 2.828209 -0.032931
v -0.070931 2.858024 -0.071807
v -0.065438 2.746206 0.070222
v -0.060372 2.796255 0.061268
v -0.055421 2.846597 0.035107
v -0.050468 2.891567 -0.023883
v -0.000036 2.747371 0.100134
v -0.000289 2.799654 0.091327
v -0.000679 2.854224 0.063278
v -0.001092 2.905467 -0.004041
v 0.065313 2.746224 0.070214
v 0.059708 2.796281 0.061249
v 0.053990 2.846620 0.035080
v 0.048272 2.891580 -0.023906
v 0.092326 2.743437 -0.002012
v 0.084473 2.788112 -0.011346
v 0.076561 2.828242 -0.032969
v 0.068709 2.858041 -0.071840
v 0.048246 2.824498 -0.119765
v 0.053813 2.809853 -0.101006
v 0.059499 2.779933 -0.083933
v 0.065180 2.740643 -0.074234
vn 0.0821 0.9913 -0.1029
vn 0.4213 0.9024 0.0906
vn 0.0257 0.9992 0.0322
vn 0.5979 0.2856 -0.7490
vn 0.2541 0.9133 -0.3183
vn 0.8297 0.5290 0.1783
vn 0.0855 0.9906 0.1072
vn 0.4409 0.7075 -0.5523
vn 0.9599 0.1899 -0.2063
vn 0.5536 0.8242 -0.1190
vn 0.2039 0.9780 0.0438
vn 0.1847 0.9552 0.2314
vn 0.8198 0.5449 -0.1762
vn 0.1959 0.9797 -0.0421
vn 0.0619 0.9980 0.0133
vn 0.4500 0.6926 0.5637
vn 0.4213 0.9024 -0.0906
vn 0.8297 0.5290 -0.1783
vn 0.8198 0.5449 0.1762
vn 0.1959 0.9797 0.0421
vn 0.2039 0.9780 -0.0438
vn 0.0619 0.9980 -0.0133
vn 0.9599 0.1899 0.2063
vn 0.5536 0.8242 0.1190
vn 0.4409 0.7075 0.5523
vn 0.0821 0.9913 0.1029
vn 0.4500 0.6926 -0.5637
vn 0.1847 0.9552 -0.2314
vn 0.5979 0.2856 0.7490
vn 0.2541 0.9133 0.3183
vn 0.0855 0.9906 -0.1072
vn 0.0257 0.9992 -0.0322
vn -0.1847 0.9552 -0.2314
vn -0.4500 0.6926 -0.5637
vn -0.5979 0.2856 0.7490
vn -0.2541 0.9133 0.3183
vn -0.0257 0.9992 -0.0322
vn -0.0855 0.9906 -0.1071
vn -0.4409 0.7075 0.5523
vn -0.0821 0.9913 0.1029
vn -0.5536 0.8242 0.1190
vn -0.0619 0.9980 -0.0133
vn -0.2039 0.9780 -0.0438
vn -0.8198 0.5449 0.1762
vn -0.1959 0.9797 0.0421
vn -0.4213 0.9024 -0.0906
vn -0.8297 0.5290 -0.1783
vn -0.9599 0.1899 0.2063
vn -0.2039 0.9780 0.0438
vn -0.0619 0.9980 0.0133
vn -0.8198 0.5449 -0.1762
vn -0.1959 0.9797 -0.0421
vn -0.8297 0.5290 0.1783
vn -0.4213 0.9024 0.0906
vn -0.9599 0.1899 -0.2063
vn -0.5536 0.8242 -0.1190
vn -0.0821 0.9913 -0.1029
vn -0.0257 0.9992 0.0322
vn -0.0855 0.9906 0.1071
vn -0.5979 0.2856 -0.7490
vn -0.2541 0.9133 -0.3183
vn -0.4500 0.6926 0.5637
vn -0.1847 0.9552 0.2314
vn -0.4409 0.7075 -0.5523
vn 0.3827 -0.0000 -0.9239
vn 0.9239 -0.0000 -0.3827
vn 0.9239 -0.0000 0.3827
vn 0.3827 -0.0000 0.9239
vn -0.3827 -0.0000 0.9239
vn -0.9239 -0.0000 0.3827
vn 0.9007 0.4336 0.0265
vn -0.9239 -0.0000 -0.3827
vn -0.3827 -0.0000 -0.9239
vn -0.0000 -1.0000 -0.0000
vn -0.0000 -0.1635 0.9865
vn 0.9256 -0.3108 -0.2159
vn -0.9239 0.3775 0.0626
vn 0.9239 0.3775 0.0626
vn 0.3827 -0.9114 -0.1511
vn -0.9239 -0.3775 -0.0626
vn -0.3827 0.9114 0.1511
vn 0.3827 0.9114 0.1511
vn 0.9239 -0.3775 -0.0626
vn -0.3827 -0.9114 -0.1511
vn 0.3604 0.9105 0.2026
vn -0.3605 0.9103 0.2035
vn -0.9013 0.4322 0.0292
vn -0.9257 -0.3140 -0.2110
vn -0.3615 -0.9083 -0.2106
vn 0.3625 -0.9064 -0.2170
vn -0.4192 -0.6772 -0.6047
vn -0.4425 -0.4219 -0.7913
vn -0.4289 -0.1995 -0.8810
vn -0.3987 -0.0630 -0.9149
vn -0.9472 -0.1217 -0.2967
vn -0.9483 -0.0105 -0.3172
vn -0.9385 0.0597 -0.3401
vn -0.9236 0.1140 -0.3660
vn -0.9114 0.3739 0.1722
vn -0.9274 0.2642 0.2648
vn -0.9294 0.1826 0.3207
vn -0.9218 0.1405 0.3612
vn -0.4034 0.7348 0.5453
vn -0.4413 0.4270 0.7893
vn -0.4298 0.1740 0.8860
vn -0.3989 0.0258 0.9166
vn 0.4028 0.7375 0.5421
vn 0.4411 0.4322 0.7865
vn 0.4301 0.1783 0.8850
vn 0.3991 0.0267 0.9165
vn 0.9090 0.3823 0.1660
vn 0.9254 0.2764 0.2593
vn 0.9284 0.1932 0.3173
vn 0.9216 0.1444 0.3602
vn 0.9464 -0.1085 -0.3041
vn 0.9466 0.0057 -0.3223
vn 0.9366 0.0733 -0.3427
vn 0.9225 0.1207 -0.3666
vn 0.4206 -0.6701 -0.6116
vn 0.4431 -0.4134 -0.7955
vn 0.4288 -0.1921 -0.8827
vn 0.3986 -0.0590 -0.9152
vt 0.750000 0.875000
vt 0.687500 1.000000
vt 0.625000 0.875000
vt 1.000000 0.625000
vt 1.000000 0.750000
vt 0.875000 0.750000
vt 0.875000 0.625000
vt 0.875000 0.875000
vt 0.812500 1.000000
vt 0.750000 0.500000
vt 0.750000 0.625000
vt 0.625000 0.625000
vt 0.625000 0.500000
vt 0.750000 0.750000
vt 0.625000 0.750000
vt 1.000000 0.500000
vt 0.875000 0.500000
vt 0.500000 0.625000
vt 0.500000 0.500000
vt 0.500000 0.875000
vt 0.500000 0.750000
vt 1.000000 0.875000
vt 0.562500 1.000000
vt 0.937500 1.000000
vt 0.125000 0.625000
vt 0.125000 0.750000
vt 0.000000 0.750000
vt 0.000000 0.625000
vt 0.125000 0.500000
vt 0.000000 0.500000
vt 0.375000 0.750000
vt 0.375000 0.625000
vt 0.437500 1.000000
vt 0.375000 0.875000
vt 0.125000 0.875000
vt 0.000000 0.875000
vt 0.062500 1.000000
vt 0.375000 0.500000
vt 0.250000 0.750000
vt 0.250000 0.625000
vt 0.312500 1.000000
vt 0.250000 0.875000
vt 0.250000 0.500000
vt 0.187500 1.000000
vt 1.000000 1.000000
vt 0.875000 1.000000
vt 0.750000 1.000000
vt 0.625000 1.000000
vt 0.500000 1.000000
vt 0.375000 1.000000
vt 0.250000 1.000000
vt 0.490000 0.250000
vt 0.419706 0.080294
vt 0.460764 0.264235
vt 0.542000 0.400000
vt 0.125000 1.000000
vt 0.000000 1.000000
vt 0.750000 0.490000
vt 0.919706 0.419706
vt 0.990000 0.250000
vt 0.919706 0.080294
vt 0.750000 0.010000
vt 0.580294 0.080294
vt 0.510000 0.250000
vt 0.580294 0.419706
vt 0.419706 0.419706
vt 0.250000 0.010000
vt 0.080294 0.080294
vt 0.010000 0.250000
vt 0.080294 0.419706
vt 0.250000 0.490000
vt 0.510764 0.535765
vt 0.300000 0.208000
vt 0.139235 0.264235
vt 0.058000 0.400000
vt 0.089236 0.535764
vt 0.200000 0.592000
vt 0.400000 0.592000
vt 0.150000 0.694000
vt 0.098177 0.651823
vt 0.100000 0.796000
vt 0.107118 0.767882
vt 0.050000 0.898000
vt 0.116059 0.883941
vt 0.106000 0.550000
vt 0.154000 0.700000
vt 0.202000 0.850000
vt 0.198177 0.448177
vt 0.257118 0.632118
vt 0.316059 0.816059
vt 0.350000 0.406000
vt 0.400000 0.604000
vt 0.450000 0.802000
vt 0.501823 0.448177
vt 0.542882 0.632118
vt 0.583941 0.816059
vt 0.594000 0.550000
vt 0.646000 0.700000
vt 0.698000 0.850000
vt 0.601823 0.651823
vt 0.692882 0.767882
vt 0.783941 0.883941
vt 0.550000 0.694000
vt 0.700000 0.796000
vt 0.850000 0.898000
s 1
usemtl 
f 6/4/2 10/5/2 52/6/2 53/7/2
f 5/8/3 55/9/3 56/1/3
f 34/16/6 6/4/6 53/7/6 54/17/6
f 52/6/7 5/8/7 56/1/7 57/14/7
f 10/5/11 11/22/11 5/8/11 52/6/11
f 53/7/12 52/6/12 57/14/12 58/11/12
f 11/22/15 55/24/15 5/8/15
f 54/17/16 53/7/16 58/11/16 48/10/16
f 16/25/17 17/26/17 10/27/17 6/28/17
f 12/29/18 16/25/18 6/28/18 34/30/18
f 17/26/21 18/35/21 11/36/21 10/27/21
f 18/35/22 55/37/22 11/36/22
f 22/43/27 23/40/27 16/25/27 12/29/27
f 23/40/28 24/39/28 17/26/28 16/25/28
f 24/39/31 28/42/31 18/35/31 17/26/31
f 28/42/32 55/44/32 18/35/32
f 30/32/33 35/31/33 24/39/33 23/40/33
f 29/38/34 30/32/34 23/40/34 22/43/34
f 36/34/37 55/41/37 28/42/37
f 35/31/38 36/34/38 28/42/38 24/39/38
f 43/20/42 55/33/42 36/34/42
f 42/21/43 43/20/43 36/34/43 35/31/43
f 41/18/46 42/21/46 35/31/46 30/32/46
f 37/19/47 41/18/47 30/32/47 29/38/47
f 50/15/49 51/3/49 43/20/49 42/21/49
f 51/3/50 55/23/50 43/20/50
f 4/13/53 49/12/53 41/18/53 37/19/53
f 49/12/54 50/15/54 42/21/54 41/18/54
f 56/1/58 55/2/58 51/3/58
f 57/14/59 56/1/59 51/3/59 50/15/59
f 48/10/62 58/11/62 49/12/62 4/13/62
f 58/11/63 57/14/63 50/15/63 49/12/63
usemtl 
f 45/1/1 44/2/1 1/3/1
f 48/10/4 47/11/4 3/12/4 4/13/4
f 46/14/5 45/1/5 1/3/5 2/15/5
f 47/11/8 46/14/8 2/15/8 3/12/8
f 4/13/9 3/12/9 9/18/9 37/19/9
f 2/15/10 1/3/10 7/20/10 8/21/10
f 3/12/13 2/15/13 8/21/13 9/18/13
f 1/3/14 44/23/14 7/20/14
f 9/18/19 8/21/19 14/31/19 15/32/19
f 7/20/20 44/33/20 13/34/20
f 37/19/23 9/18/23 15/32/23 29/38/23
f 8/21/24 7/20/24 13/34/24 14/31/24
f 15/32/25 14/31/25 20/39/25 21/40/25
f 13/34/26 44/41/26 19/42/26
f 29/38/29 15/32/29 21/40/29 22/43/29
f 14/31/30 13/34/30 19/42/30 20/39/30
f 22/43/35 21/40/35 27/25/35 12/29/35
f 20/39/36 19/42/36 25/35/36 26/26/36
f 21/40/39 20/39/39 26/26/39 27/25/39
f 19/42/40 44/44/40 25/35/40
f 26/26/41 25/35/41 31/36/41 32/27/41
f 27/25/44 26/26/44 32/27/44 33/28/44
f 25/35/45 44/37/45 31/36/45
f 12/29/48 27/25/48 33/28/48 34/30/48
f 33/4/51 32/5/51 39/6/51 40/7/51
f 31/22/52 44/24/52 38/8/52
f 34/16/55 33/4/55 40/7/55 54/17/55
f 32/5/56 31/22/56 38/8/56 39/6/56
f 38/8/57 44/9/57 45/1/57
f 54/17/60 40/7/60 47/11/60 48/10/60
f 39/6/61 38/8/61 45/1/61 46/14/61
f 40/7/64 39/6/64 46/14/64 47/11/64
f 59/16/65 60/45/65 62/46/65 61/17/65
f 61/17/66 62/46/66 64/47/66 63/10/66
f 63/10/67 64/47/67 66/48/67 65/13/67
f 65/13/68 66/48/68 68/49/68 67/19/68
f 67/19/69 68/49/69 70/50/69 69/38/69
f 69/38/70 70/50/70 72/51/70 71/43/70
f 85/52/71 86/53/71 114/54/71 118/55/71
f 71/43/72 72/51/72 74/56/72 73/29/72
f 73/29/73 74/56/73 60/57/73 59/30/73
f 59/58/74 61/59/74 63/60/74 65/61/74 67/62/74 69/63/74 71/64/74 73/65/74
f 76/66/75 77/52/75 78/53/75 79/67/75 80/68/75 81/69/75 82/70/75 75/71/75
f 83/66/76 85/52/76 118/55/76 119/72/76
f 77/52/77 76/66/77 83/66/77 85/52/77
f 82/70/78 81/69/78 89/69/78 90/70/78
f 80/68/79 79/67/79 87/67/79 88/68/79
f 78/53/80 77/52/80 85/52/80 86/53/80
f 76/66/81 75/71/81 84/71/81 83/66/81
f 75/71/82 82/70/82 90/70/82 84/71/82
f 81/69/83 80/68/83 88/68/83 89/69/83
f 79/67/84 78/53/84 86/53/84 87/67/84
f 86/53/85 87/67/85 110/73/85 114/54/85
f 87/67/86 88/68/86 106/74/86 110/73/86
f 88/68/87 89/69/87 102/75/87 106/74/87
f 89/69/88 90/70/88 98/76/88 102/75/88
f 90/70/89 84/71/89 94/77/89 98/76/89
f 84/71/90 83/66/90 119/72/90 94/78/90
f 98/76/91 94/77/91 93/79/91 97/80/91
f 97/80/92 93/79/92 92/81/92 96/82/92
f 96/82/93 92/81/93 91/83/93 95/84/93
f 95/84/94 91/83/94 60/57/94 74/56/94
f 102/75/95 98/76/95 97/80/95 101/85/95
f 101/85/96 97/80/96 96/82/96 100/86/96
f 100/86/97 96/82/97 95/84/97 99/87/97
f 99/87/98 95/84/98 74/56/98 72/51/98
f 106/74/99 102/75/99 101/85/99 105/88/99
f 105/88/100 101/85/100 100/86/100 104/89/100
f 104/89/101 100/86/101 99/87/101 103/90/101
f 103/90/102 99/87/102 72/51/102 70/50/102
f 110/73/103 106/74/103 105/88/103 109/91/103
f 109/91/104 105/88/104 104/89/104 108/92/104
f 108/92/105 104/89/105 103/90/105 107/93/105
f 107/93/106 103/90/106 70/50/106 68/49/106
f 114/54/107 110/73/107 109/91/107 113/94/107
f 113/94/108 109/91/108 108/92/108 112/95/108
f 112/95/109 108/92/109 107/93/109 111/96/109
f 111/96/110 107/93/110 68/49/110 66/48/110
f 118/55/111 114/54/111 113/94/111 117/97/111
f 117/97/112 113/94/112 112/95/112 116/98/112
f 116/98/113 112/95/113 111/96/113 115/99/113
f 115/99/114 111/96/114 66/48/114 64/47/114
f 119/72/115 118/55/115 117/97/115 120/100/115
f 120/100/116 117/97/116 116/98/116 121/101/116
f 121/101/117 116/98/117 115/99/117 122/102/117
f 122/102/118 115/99/118 64/47/118 62/46/118
f 94/78/119 119/72/119 120/100/119 93/103/119
f 93/103/120 120/100/120 121/101/120 92/104/120
f 92/104/121 121/101/121 122/102/121 91/105/121
f 91/105/122 122/102/122 62/46/122 60/45/122
